<?xml version="1.0" encoding="UTF-8"?>
<svg width="21px" height="20px" viewBox="0 0 21 20" version="1.1" xmlns="http://www.w3.org/2000/svg" xmlns:xlink="http://www.w3.org/1999/xlink">
    <!-- Generator: Sketch 50.2 (55047) - http://www.bohemiancoding.com/sketch -->
    <title>chat</title>
    <desc>Created with Sketch.</desc>
    <defs></defs>
    <g id="CSP" stroke="none" stroke-width="1" fill="none" fill-rule="evenodd">
        <g id="Artboard" transform="translate(-1033.000000, -784.000000)" fill="#879596" fill-rule="nonzero">
            <g id="Group-6" transform="translate(617.000000, 766.000000)">
                <g id="Group" transform="translate(397.000000, 0.000000)">
                    <g id="chat" transform="translate(19.000000, 18.000000)">
                        <polygon id="Shape" points="11 15 6.6 15 4 17.6 4 15 2 15 2 9 3 9 3 7 0 7 0 17 2 17 2 20 4.4 20 7.4 17 13 17 13 14 11 14"></polygon>
                        <path d="M4,0 L4,13 L13.6,13 L16.6,16 L19,16 L19,13 L21,13 L21,0 L4,0 Z M19,11 L17,11 L17,13.6 L14.4,11 L6,11 L6,2 L19,2 L19,11 Z" id="Shape"></path>
                        <rect id="Rectangle-path" x="8" y="4" width="9" height="2"></rect>
                        <rect id="Rectangle-path" x="8" y="7" width="6" height="2"></rect>
                    </g>
                </g>
            </g>
        </g>
    </g>
</svg>