<?xml version="1.0" encoding="UTF-8"?>
<svg width="22px" height="22px" viewBox="0 0 22 22" version="1.1" xmlns="http://www.w3.org/2000/svg" xmlns:xlink="http://www.w3.org/1999/xlink">
    <!-- Generator: Sketch 50.2 (55047) - http://www.bohemiancoding.com/sketch -->
    <title>phone_icon</title>
    <desc>Created with Sketch.</desc>
    <defs></defs>
    <g id="CSP" stroke="none" stroke-width="1" fill="none" fill-rule="evenodd">
        <g id="Artboard" transform="translate(-637.000000, -783.000000)" stroke="#879596" stroke-width="2">
            <g id="Group-6" transform="translate(617.000000, 766.000000)">
                <g id="Group-5">
                    <g id="phone_icon" transform="translate(21.000000, 18.000000)">
                        <path d="M16.0982018,13.1660676 C15.9591934,13.124079 15.7887027,13.114799 15.5856486,13.1418124 C15.210128,13.1917714 14.7685776,13.3599962 14.3113714,13.6121095 C13.9546141,13.8088333 13.6723255,14.0054762 13.4948433,14.1469743 C13.0350908,14.4879638 12.3825605,14.4509133 11.9711257,14.0411562 L5.93894,8.03357238 C5.57541095,7.67152571 5.48829457,7.11345048 5.68926152,6.66068095 L6.71702067,4.34518476 C6.77925457,4.20497429 6.73271781,3.89826571 6.63393486,3.78581524 L3.59502781,0.326432381 C3.24892429,-0.0675590476 2.63359905,-0.111525714 2.23352895,0.230878095 L1.336472,0.998634286 C0.0685321905,2.08381429 -0.379972571,4.24634 0.351580286,5.73852 L0.402426476,5.86413524 C0.425521619,5.93539619 0.492457238,6.10714952 0.614647333,6.37294952 C0.828463905,6.83806571 1.12035638,7.38417048 1.50181248,8.00481619 C2.60939771,9.80690571 4.21295933,11.8284362 6.40499543,14.0171943 C8.57510457,16.1840571 10.793103,17.7535638 12.9369977,18.8229857 C13.6800056,19.1936143 14.358154,19.4750876 14.9559031,19.6793114 C15.303305,19.7980038 15.5391955,19.8632971 15.6478695,19.8871057 L15.7577301,19.918179 C16.3984645,20.141679 17.432077,19.889801 17.9319913,19.3906343 L19.7255749,17.5997343 C20.0922222,17.2336352 20.090657,16.6509333 19.7117845,16.2822943 C19.6049338,16.1740086 19.4097703,15.9805724 19.150261,15.7306876 C18.7173722,15.3138533 18.2674179,14.8972029 17.8252043,14.5099962 C17.6288668,14.338081 17.4382057,14.1756876 17.2546352,14.0244038 C16.8090129,13.65716 16.4163051,13.364679 16.0982018,13.1660676 Z" id="Rectangle-5"></path>
                    </g>
                </g>
            </g>
        </g>
    </g>
</svg>